<?xml version="1.0" encoding="UTF-8" standalone="no"?>
<svg
   xmlns:dc="http://purl.org/dc/elements/1.1/"
   xmlns:cc="http://creativecommons.org/ns#"
   xmlns:rdf="http://www.w3.org/1999/02/22-rdf-syntax-ns#"
   xmlns:svg="http://www.w3.org/2000/svg"
   xmlns="http://www.w3.org/2000/svg"
   xmlns:sodipodi="http://sodipodi.sourceforge.net/DTD/sodipodi-0.dtd"
   xmlns:inkscape="http://www.inkscape.org/namespaces/inkscape"
   id="joystick"
   viewBox="0 0 65 35.2"
   version="1.1"
   sodipodi:docname="Full.svg"
   inkscape:version="0.92.3 (2405546, 2018-03-11)">
  <metadata
     id="metadata35">
    <rdf:RDF>
      <cc:Work
         rdf:about="">
        <dc:format>image/svg+xml</dc:format>
        <dc:type
           rdf:resource="http://purl.org/dc/dcmitype/StillImage" />
        <dc:title>Joystick
    </dc:title>
      </cc:Work>
    </rdf:RDF>
  </metadata>
  <sodipodi:namedview
     pagecolor="#ffffff"
     bordercolor="#666666"
     borderopacity="1"
     objecttolerance="10"
     gridtolerance="10"
     guidetolerance="10"
     inkscape:pageopacity="0"
     inkscape:pageshadow="2"
     inkscape:window-width="1920"
     inkscape:window-height="1007"
     id="namedview33"
     showgrid="false"
     inkscape:zoom="11.313709"
     inkscape:cx="34.074234"
     inkscape:cy="25.910202"
     inkscape:window-x="1920"
     inkscape:window-y="23"
     inkscape:window-maximized="1"
     inkscape:current-layer="joystick" />
  <defs
     id="defs4"><style
   id="style2">
        .cls-1 {
          fill: #95a5a6;
        }

        .cls-2 {
          fill: #bdc3c7;
        }

        .cls-3 {
          fill: #ecf0f1;
        }

        .cls-4 {
          fill: #7f8c8d;
        }

        .cls-6 {
          fill: #f39c12;
        }

        .cls-7 {
          fill: #2980b9;
        }

        .cls-8 {
          fill: #c0392b;
        }
      </style>

up points=&quot;15.14 6.4 12.02 12.4 18.02 12.4 15.14 6.4&quot; /&gt;
        (click)=&quot;onDown()&quot; class=&quot;hitboxDown&quot; fill=&quot;#FFFFFF&quot; fill-opacity=&quot;0.1&quot; cx=&quot;15&quot; cy=&quot;24.3&quot; r=&quot;4.5&quot; /&gt;
        (click)=&quot;onUp()&quot; class=&quot;hitboxUp&quot; fill=&quot;#FFFFFF&quot; fill-opacity=&quot;0.1&quot; cx=&quot;15&quot; cy=&quot;9.3&quot; r=&quot;4.5&quot; /&gt;
        (click)=&quot;onRight()&quot; class=&quot;hitboxRight&quot; fill=&quot;#FFFFFF&quot; fill-opacity=&quot;0.1&quot; cx=&quot;22.5&quot; cy=&quot;17&quot; r=&quot;4.5&quot; /&gt;
      (click)=&quot;turn()&quot; cx=&quot;42.55&quot; cy=&quot;16.88&quot; r=&quot;4.5&quot; /&gt;
          </defs>
  <title
     id="title6">Joystick
    </title>
  <path
     style="fill:#6f8385;fill-opacity:1"
     inkscape:connector-curvature="0"
     d="M 16.3,2.7 A 20.48,20.48 0 0 0 10.7,3.5 16.59,16.59 0 0 0 0,18.9 16.39,16.39 0 0 0 10.7,34.1 c 2.6,1.1 5.8,1.1 8.6,1.1 5.3,0 8.6,-5.7 13.2,-5.4 4.6,-0.3 7.9,5.4 13.2,5.4 2.8,0 6,0 8.6,-1.1 A 16.53,16.53 0 0 0 65,18.9 C 65,12.1 60.7,5.6 54.3,3.5 A 20.48,20.48 0 0 0 48.7,2.7 Z"
     class="cls-1"
     data-name="&lt;Tracé&gt;"
     id="_Tracé_" />
  <path
     style="fill:#95a5a6;fill-opacity:1"
     inkscape:connector-curvature="0"
     d="M 16.3,0 A 20.48,20.48 0 0 0 10.7,0.8 16.59,16.59 0 0 0 0,16.2 16.39,16.39 0 0 0 10.7,31.4 c 2.6,1.1 5.8,1.1 8.6,1.1 5.3,0 8.6,-5.7 13.2,-5.4 4.6,-0.3 7.9,5.4 13.2,5.4 2.8,0 6,0 8.6,-1.1 A 16.53,16.53 0 0 0 65,16.2 C 65,9.4 60.7,2.9 54.3,0.8 A 20.48,20.48 0 0 0 48.7,0 Z"
     class="cls-2"
     data-name="&lt;Tracé&gt;"
     id="_Tracé_2" />
  <circle
     style="fill:#ecf0f1"
     r="13.5"
     cy="16.879999"
     cx="15.02"
     class="cls-3"
     data-name="&lt;Tracé&gt;"
     id="_Tracé_3" />
  <path
     style="fill:#252c2d;fill-opacity:1"
     inkscape:connector-curvature="0"
     d="M 15.090001,5.9398299 A 3.74,3.74 0 0 0 11.23,9.7698295 V 13.59983 H 7.3699994 a 3.74,3.74 0 0 0 -3.86,3.83 3.92,3.92 0 0 0 3.86,3.83 H 11.08 v 3.83 a 3.92,3.92 0 0 0 3.860001,3.83 4,4 0 0 0 3.86,-3.83 v -3.81 h 3.86 a 4,4 0 0 0 3.86,-3.83 3.74,3.74 0 0 0 -3.86,-3.83 h -3.86 V 9.7798295 a 3.63,3.63 0 0 0 -3.71,-3.8399996 z"
     class="cls-4"
     data-name="&lt;Tracé&gt;"
     id="_Tracé_4-6" />
  <path
     style="fill:#6f8385;fill-opacity:1"
     inkscape:connector-curvature="0"
     d="m 15.09,5.38 a 3.74,3.74 0 0 0 -3.86,3.83 v 3.83 H 7.37 a 3.74,3.74 0 0 0 -3.86,3.83 3.92,3.92 0 0 0 3.86,3.83 h 3.71 v 3.83 a 3.92,3.92 0 0 0 3.86,3.83 4,4 0 0 0 3.86,-3.83 v -3.81 h 3.86 a 4,4 0 0 0 3.86,-3.83 3.74,3.74 0 0 0 -3.86,-3.83 H 18.8 V 9.22 A 3.63,3.63 0 0 0 15.09,5.38 Z"
     class="cls-4"
     data-name="&lt;Tracé&gt;"
     id="_Tracé_4" />
  <circle
     style="fill:#ecf0f1"
     id="circle12"
     r="13.5"
     cy="16.879999"
     cx="50.02"
     class="cls-3" />
  <circle
     r="0"
     cy="0"
     cx="0"
     id="circle14" />
  <polygon
     id="polygon18" />
  <circle
     id="circle24"
     cx="0"
     cy="0"
     r="0" />
  <circle
     id="circle26"
     cx="0"
     cy="0"
     r="0" />
  <circle
     id="circle28"
     cx="0"
     cy="0"
     r="0" />
  <polyline
     style="fill:none;stroke:#000000;stroke-width:1.76075518;stroke-linecap:round;stroke-linejoin:round;stroke-miterlimit:4;stroke-dasharray:none"
     points="23 4 23 10 17 10"
     id="rightArrow"
     transform="matrix(0.4031459,-0.4031459,0.40004587,0.40004587,11.606185,22.131597)" />
  <polyline
     style="fill:none;stroke:#000000;stroke-width:1.76075518;stroke-linecap:round;stroke-linejoin:round;stroke-miterlimit:4;stroke-dasharray:none"
     points="23 4 23 10 17 10"
     id="leftArrow"
     transform="matrix(-0.4031459,-0.4031459,-0.40004587,0.40004587,18.810705,22.131597)" />
  <polyline
     style="fill:none;stroke:#000000;stroke-width:1.76075518;stroke-linecap:round;stroke-linejoin:round;stroke-miterlimit:4;stroke-dasharray:none"
     points="23 4 23 10 17 10"
     id="downArrow"
     transform="matrix(-0.4031459,0.4031459,0.40004587,0.40004587,20.277578,13.208389)" />
  <polyline
     style="fill:none;stroke:#000000;stroke-width:1.76075518;stroke-linecap:round;stroke-linejoin:round;stroke-miterlimit:4;stroke-dasharray:none"
     points="23 4 23 10 17 10"
     id="upArrow"
     transform="matrix(-0.4031459,-0.4031459,0.40004587,-0.40004587,20.277578,20.643422)" />
  <g
     transform="matrix(0.00778544,0,0,0.00778544,22.590961,-0.00824923)"
     id="layer1"
     inkscape:label="Calque 1"
     style="stroke-width:128.44491577">
    <g
       style="fill:#ffffff;stroke-width:128.44491577"
       id="g4473">
      <flowRoot
         xml:space="preserve"
         id="flowRoot4422"
         style="font-style:normal;font-variant:normal;font-weight:normal;font-stretch:normal;line-height:0.01%;font-family:oxygen;-inkscape-font-specification:oxygen;letter-spacing:0px;word-spacing:0px;fill:#ffffff;fill-opacity:1;stroke:none;stroke-width:128.44491577px;stroke-linecap:butt;stroke-linejoin:miter;stroke-opacity:1"
         transform="translate(155.30263,173.2118)"><flowRegion
           style="fill:#ffffff;stroke-width:128.44491577px"
           id="flowRegion4424"><rect
             id="rect4426"
             width="2250.6348"
             height="432.41016"
             x="405.94794"
             y="75.464691"
             style="font-style:normal;font-variant:normal;font-weight:normal;font-stretch:normal;font-family:oxygen;-inkscape-font-specification:oxygen;fill:#ffffff;stroke-width:128.44491577px" /></flowRegion><flowPara
           id="flowPara4428"
           style="font-style:normal;font-variant:normal;font-weight:300;font-stretch:normal;font-size:268.75px;line-height:1.25;font-family:oxygen;-inkscape-font-specification:'oxygen Light';fill:#ffffff;stroke-width:128.44491577px">Arbalet</flowPara></flowRoot>      <flowRoot
         xml:space="preserve"
         id="flowRoot4422-2"
         style="font-style:normal;font-variant:normal;font-weight:normal;font-stretch:normal;line-height:0.01%;font-family:oxygen;-inkscape-font-specification:oxygen;letter-spacing:0px;word-spacing:0px;fill:#ffffff;fill-opacity:1;stroke:none;stroke-width:128.44491577px;stroke-linecap:butt;stroke-linejoin:miter;stroke-opacity:1"
         transform="translate(1083.4645,173.2118)"><flowRegion
           style="fill:#ffffff;stroke-width:128.44491577px"
           id="flowRegion4424-0"><rect
             id="rect4426-2"
             width="2250.6348"
             height="432.41016"
             x="405.94794"
             y="75.464691"
             style="font-style:normal;font-variant:normal;font-weight:normal;font-stretch:normal;font-family:oxygen;-inkscape-font-specification:oxygen;fill:#ffffff;stroke-width:128.44491577px" /></flowRegion><flowPara
           id="flowPara4428-3"
           style="font-style:normal;font-variant:normal;font-weight:300;font-stretch:normal;font-size:268.75px;line-height:1.25;font-family:oxygen;-inkscape-font-specification:'oxygen Light';fill:#ffffff;stroke-width:128.44491577px">Saint Jean</flowPara></flowRoot>    </g>
    <g
       style="fill:#ffffff;stroke-width:128.44491577"
       transform="matrix(6.0276228,0,0,6.0276223,-4572.6227,-5694.7388)"
       id="g7888">
      <path
         style="color:#000000;clip-rule:nonzero;display:inline;overflow:visible;visibility:visible;opacity:1;isolation:auto;mix-blend-mode:normal;color-interpolation:sRGB;color-interpolation-filters:linearRGB;solid-color:#000000;solid-opacity:1;fill:#ffffff;fill-opacity:1;fill-rule:nonzero;stroke-width:128.44491577;marker:none;color-rendering:auto;image-rendering:auto;shape-rendering:auto;text-rendering:auto;enable-background:accumulate"
         d="m 800.22948,1026.6952 h 18.24928 v 18.2493 h -18.24928 z"
         id="rect3341-2"
         inkscape:connector-curvature="0" />
      <path
         inkscape:connector-curvature="0"
         id="path4146-9"
         d="m 820.13779,1006.7869 h 18.24929 v 18.2493 h -18.24929 z"
         style="color:#000000;clip-rule:nonzero;display:inline;overflow:visible;visibility:visible;opacity:1;isolation:auto;mix-blend-mode:normal;color-interpolation:sRGB;color-interpolation-filters:linearRGB;solid-color:#000000;solid-opacity:1;fill:#ffffff;fill-opacity:1;fill-rule:nonzero;stroke-width:128.44491577;marker:none;color-rendering:auto;image-rendering:auto;shape-rendering:auto;text-rendering:auto;enable-background:accumulate" />
      <path
         style="color:#000000;clip-rule:nonzero;display:inline;overflow:visible;visibility:visible;opacity:1;isolation:auto;mix-blend-mode:normal;color-interpolation:sRGB;color-interpolation-filters:linearRGB;solid-color:#000000;solid-opacity:1;fill:#ffffff;fill-opacity:1;fill-rule:nonzero;stroke-width:128.44491577;marker:none;color-rendering:auto;image-rendering:auto;shape-rendering:auto;text-rendering:auto;enable-background:accumulate"
         d="m 780.32116,1006.7869 h 18.24929 v 18.2493 h -18.24929 z"
         id="path4148-9"
         inkscape:connector-curvature="0" />
      <path
         inkscape:connector-curvature="0"
         id="path4150-6"
         d="m 800.22948,986.87859 h 18.24928 v 18.24931 h -18.24928 z"
         style="color:#000000;clip-rule:nonzero;display:inline;overflow:visible;visibility:visible;opacity:1;isolation:auto;mix-blend-mode:normal;color-interpolation:sRGB;color-interpolation-filters:linearRGB;solid-color:#000000;solid-opacity:1;fill:#ffffff;fill-opacity:1;fill-rule:nonzero;stroke-width:128.44491577;marker:none;color-rendering:auto;image-rendering:auto;shape-rendering:auto;text-rendering:auto;enable-background:accumulate" />
      <path
         style="color:#000000;clip-rule:nonzero;display:inline;overflow:visible;visibility:visible;opacity:1;isolation:auto;mix-blend-mode:normal;color-interpolation:sRGB;color-interpolation-filters:linearRGB;solid-color:#000000;solid-opacity:1;fill:#ffffff;fill-opacity:1;fill-rule:nonzero;stroke-width:128.44491577;marker:none;color-rendering:auto;image-rendering:auto;shape-rendering:auto;text-rendering:auto;enable-background:accumulate"
         d="m 831.75097,986.87859 c 3.6764,0 6.63611,2.9597 6.63611,6.63611 v 11.6132 h -18.24929 v -18.24931 z"
         id="rect4152-0"
         inkscape:connector-curvature="0"
         sodipodi:nodetypes="cccccc" />
      <path
         sodipodi:nodetypes="cccccc"
         inkscape:connector-curvature="0"
         id="path4165-2"
         d="m 786.95727,986.87859 c -3.6764,0 -6.63611,2.9597 -6.63611,6.63611 v 11.6132 h 18.24929 v -18.24931 z"
         style="color:#000000;clip-rule:nonzero;display:inline;overflow:visible;visibility:visible;opacity:1;isolation:auto;mix-blend-mode:normal;color-interpolation:sRGB;color-interpolation-filters:linearRGB;solid-color:#000000;solid-opacity:1;fill:#ffffff;fill-opacity:1;fill-rule:nonzero;stroke-width:128.44491577;marker:none;color-rendering:auto;image-rendering:auto;shape-rendering:auto;text-rendering:auto;enable-background:accumulate" />
      <path
         sodipodi:nodetypes="cccccc"
         inkscape:connector-curvature="0"
         id="path4167-7"
         d="m 831.75097,1044.9445 c 3.6764,0 6.63611,-2.9597 6.63611,-6.6361 v -11.6132 h -18.24929 v 18.2493 z"
         style="color:#000000;clip-rule:nonzero;display:inline;overflow:visible;visibility:visible;opacity:1;isolation:auto;mix-blend-mode:normal;color-interpolation:sRGB;color-interpolation-filters:linearRGB;solid-color:#000000;solid-opacity:1;fill:#ffffff;fill-opacity:1;fill-rule:nonzero;stroke-width:128.44491577;marker:none;color-rendering:auto;image-rendering:auto;shape-rendering:auto;text-rendering:auto;enable-background:accumulate" />
      <path
         style="color:#000000;clip-rule:nonzero;display:inline;overflow:visible;visibility:visible;opacity:1;isolation:auto;mix-blend-mode:normal;color-interpolation:sRGB;color-interpolation-filters:linearRGB;solid-color:#000000;solid-opacity:1;fill:#ffffff;fill-opacity:1;fill-rule:nonzero;stroke-width:128.44491577;marker:none;color-rendering:auto;image-rendering:auto;shape-rendering:auto;text-rendering:auto;enable-background:accumulate"
         d="m 786.95727,1044.9445 c -3.6764,0 -6.63611,-2.9597 -6.63611,-6.6361 v -11.6132 h 18.24929 v 18.2493 z"
         id="path4169-6"
         inkscape:connector-curvature="0"
         sodipodi:nodetypes="cccccc" />
    </g>
    <path
       inkscape:connector-curvature="0"
       id="rect7854"
       d="m 170.85885,253.79197 c -22.15999,0 -40.00001,17.83995 -40.00001,40 v 70.00001 H 240.85885 V 253.79197 Z m 80,0 v 110.00001 h 110 V 253.79197 Z m 120,0 v 110.00001 h 110 v -70.00001 c 0,-22.16005 -17.84,-40 -40,-40 z M 130.85884,373.79198 v 110 h 110.00001 v -110 z m 240.00001,0 v 110 h 110 v -110 z m -240.00001,120 v 70 c 0,22.16 17.84002,40 40.00001,40 h 70 v -110 z m 120.00001,0 v 110 h 110 v -110 z m 120,0 v 110 h 70 c 22.16,0 40,-17.84 40,-40 v -70 z"
       style="opacity:0.53699999;fill:#ffffff;fill-opacity:1;stroke:none;stroke-width:1284.44921875;stroke-linejoin:miter;stroke-miterlimit:4;stroke-dasharray:none;stroke-opacity:1" />
  </g>
  <circle
     style="fill:#252c2d;fill-opacity:1;stroke-width:1"
     id="circle12-5-2"
     r="8.8389826"
     cy="17.481583"
     cx="50.02"
     class="cls-3" />
  <circle
     style="fill:#6f8385;stroke-width:1;fill-opacity:1"
     id="circle12-5"
     r="8.8389826"
     cy="16.879999"
     cx="50.02"
     class="cls-3" />
  <g
     id="rotateArrow">
    <polyline
       transform="matrix(0.5701344,0,0,0.5657503,42.869735,10.428913)"
       id="polyline878"
       points="23 4 23 10 17 10"
       style="fill:none;stroke:#000000;stroke-width:1.7607552;stroke-linecap:round;stroke-linejoin:round;stroke-miterlimit:4;stroke-dasharray:none" />
    <path
       id="path880"
       d="m 54.551789,18.915168 a 5.1312096,5.0917527 0 1 1 -1.208685,-5.295423 l 2.639722,2.466671"
       inkscape:connector-curvature="0"
       style="fill:none;stroke:#000000;stroke-width:1;stroke-linecap:round;stroke-linejoin:round;stroke-miterlimit:4;stroke-dasharray:none" />
  </g>
  <path
     style="opacity:1;fill:#95a5a6;fill-opacity:1;stroke:none;stroke-width:1.18655562;stroke-miterlimit:4;stroke-dasharray:none;stroke-opacity:1"
     d="m 27.619199,5.8250008 h 9.761603 c 1.44586,0 2.609855,1.1639953 2.609855,2.6098549 v 1.9677903 c 0,1.445859 -1.163995,2.609855 -2.609855,2.609855 h -9.761603 c -1.44586,0 -2.609855,-1.163996 -2.609855,-2.609855 V 8.4348557 c 0,-1.4458596 1.163995,-2.6098549 2.609855,-2.6098549 z"
     id="rect3632" />
  <g
     id="g5153">
    <path
       sodipodi:nodetypes="cccccc"
       inkscape:connector-curvature="0"
       id="rect3469-3"
       d="m 28.045223,7.2958909 h 3.842593 V 10.974966 H 28.045223 L 26.655351,9.1354279 Z"
       style="opacity:1;fill:#252c2d;fill-opacity:1;stroke:none;stroke-width:0.04588471;stroke-miterlimit:4;stroke-dasharray:none;stroke-opacity:1" />
    <path
       sodipodi:nodetypes="cccccc"
       inkscape:connector-curvature="0"
       id="rect3469"
       d="m 28.049706,6.9009189 h 3.842593 V 10.579994 H 28.049706 L 26.659834,8.7404559 Z"
       style="opacity:1;fill:#6f8385;fill-opacity:1;stroke:none;stroke-width:0.04588471;stroke-miterlimit:4;stroke-dasharray:none;stroke-opacity:1" />
    <g
       id="restartArrow"
       transform="matrix(-0.20560141,0,0,0.20560141,40.052363,5.2017935)">
      <polyline
         style="fill:none;stroke:#000000;stroke-width:1.76075518;stroke-linecap:round;stroke-linejoin:round;stroke-miterlimit:4;stroke-dasharray:none"
         points="23 4 23 10 17 10"
         id="polyline878-5"
         transform="matrix(0.5701344,0,0,0.5657503,42.869735,10.428913)" />
      <path
         style="fill:none;stroke:#000000;stroke-width:1;stroke-linecap:round;stroke-linejoin:round;stroke-miterlimit:4;stroke-dasharray:none"
         inkscape:connector-curvature="0"
         d="m 54.551789,18.915168 a 5.1312096,5.0917527 0 1 1 -1.208685,-5.295423 l 2.639722,2.466671"
         id="path880-3" />
    </g>
  </g>
  <g
     id="g5141">
    <path
       sodipodi:nodetypes="cccccc"
       inkscape:connector-curvature="0"
       id="rect3469-3-5"
       d="m 36.954777,7.2958909 h -3.842593 v 3.6790751 h 3.842593 l 1.389872,-1.8395381 z"
       style="opacity:1;fill:#252c2d;fill-opacity:1;stroke:none;stroke-width:0.04588471;stroke-miterlimit:4;stroke-dasharray:none;stroke-opacity:1" />
    <path
       sodipodi:nodetypes="cccccc"
       inkscape:connector-curvature="0"
       id="rect3469-6"
       d="m 36.950294,6.9009189 h -3.842593 v 3.6790751 h 3.842593 l 1.389872,-1.8395381 z"
       style="opacity:1;fill:#6f8385;fill-opacity:1;stroke:none;stroke-width:0.04588471;stroke-miterlimit:4;stroke-dasharray:none;stroke-opacity:1" />
    <g
       transform="translate(2.8259617,1.7445102)"
       id="nextArrow">
      <g
         transform="matrix(0.15279162,-0.13757419,0.13757419,0.15279162,23.070655,12.248039)"
         id="g3519-7-2">
        <polyline
           transform="matrix(0.5701344,0,0,0.5657503,42.869735,10.428913)"
           id="polyline878-5-9"
           points="23 4 23 10 17 10"
           style="fill:none;stroke:#000000;stroke-width:1.76075518;stroke-linecap:round;stroke-linejoin:round;stroke-miterlimit:4;stroke-dasharray:none" />
        <path
           id="path880-3-1"
           d="m 46.961265,7.8735113 9.021561,8.2129047"
           inkscape:connector-curvature="0"
           style="fill:none;stroke:#000000;stroke-width:1;stroke-linecap:round;stroke-linejoin:round;stroke-miterlimit:4;stroke-dasharray:none"
           sodipodi:nodetypes="cc" />
      </g>
    </g>
  </g>
  <flowRoot
     xml:space="preserve"
     id="flowRoot4422-0"
     style="font-style:normal;font-variant:normal;font-weight:normal;font-stretch:normal;font-size:137.00788879px;line-height:0.01%;font-family:oxygen;-inkscape-font-specification:oxygen;letter-spacing:0px;word-spacing:0px;fill:#ffffff;fill-opacity:1;stroke:none;stroke-width:128.44491577px;stroke-linecap:butt;stroke-linejoin:miter;stroke-opacity:1"
     transform="matrix(0.00778544,0,0,0.00778544,23.54367,10.491447)"><flowRegion
       style="font-size:137.00788879px;fill:#ffffff;stroke-width:128.44491577px"
       id="flowRegion4424-9"><rect
         id="rect4426-3"
         width="1030.4083"
         height="231.71501"
         x="405.94794"
         y="75.464691"
         style="font-style:normal;font-variant:normal;font-weight:normal;font-stretch:normal;font-size:137.00788879px;font-family:oxygen;-inkscape-font-specification:oxygen;fill:#ffffff;stroke-width:128.44491577px" /></flowRegion><flowPara
       id="flowPara4428-6"
       style="font-style:normal;font-variant:normal;font-weight:300;font-stretch:normal;font-size:171.25985718px;line-height:1.25;font-family:oxygen;-inkscape-font-specification:'oxygen Light';fill:#ffffff;stroke-width:128.44491577px">Relancer</flowPara></flowRoot>  <flowRoot
     xml:space="preserve"
     id="flowRoot4422-0-9"
     style="font-style:normal;font-variant:normal;font-weight:normal;font-stretch:normal;font-size:102.75591278px;line-height:0.89999998;font-family:oxygen;-inkscape-font-specification:oxygen;text-align:end;letter-spacing:0px;word-spacing:0px;text-anchor:end;fill:#ffffff;fill-opacity:1;stroke:none;stroke-width:128.44491577px;stroke-linecap:butt;stroke-linejoin:miter;stroke-opacity:1"
     transform="matrix(0.00778544,0,0,0.00778544,29.884072,10.647111)"><flowRegion
       style="font-size:102.75591278px;line-height:0.89999998;text-align:end;text-anchor:end;fill:#ffffff;stroke-width:128.44491577px"
       id="flowRegion4424-9-2"><rect
         id="rect4426-3-2"
         width="997.74109"
         height="329.42606"
         x="405.94794"
         y="75.464691"
         style="font-style:normal;font-variant:normal;font-weight:normal;font-stretch:normal;font-size:102.75591278px;line-height:0.89999998;font-family:oxygen;-inkscape-font-specification:oxygen;text-align:end;text-anchor:end;fill:#ffffff;stroke-width:128.44491577px" /></flowRegion><flowPara
       style="font-style:normal;font-variant:normal;font-weight:300;font-stretch:normal;font-size:171.25985718px;line-height:0.89999998;font-family:oxygen;-inkscape-font-specification:'oxygen Light';text-align:start;text-anchor:start;fill:#ffffff;stroke-width:128.44491577px"
       id="flowPara3789">Suivant</flowPara></flowRoot>  <path
     id="rotate"
     onclick="turn()"
     d="m 63.499521,17.090947 -3.406244,8.627552 H 50.020001 c -4.881636,0 -8.838983,-3.956849 -8.838983,-8.838485 0,-4.881635 3.957348,-8.8385153 8.838983,-8.838515 l 10.099641,0.052733 z"
     style="opacity:0.54000005;fill:#ff0000;fill-opacity:1;stroke-width:1"
     inkscape:connector-curvature="0"
     sodipodi:nodetypes="ccssscc" />
  <path
     style="opacity:0.54000005;fill:#ff0000;fill-opacity:1;stroke:none;stroke-width:1.00157475;stroke-miterlimit:4;stroke-dasharray:none;stroke-opacity:1"
     d="m 23.821243,6.4165711 -3.650146,-2.3247127 -5.63045,-3.35724997 -7.0054497,0.01775 -7.00544994,0.01775 L 14.584078,17.699108 Z"
     id="up"
     inkscape:connector-curvature="0"
     sodipodi:nodetypes="ccccccc" />
  <path
     style="opacity:0.54000005;fill:#ff0000;fill-opacity:1;stroke:none;stroke-width:1.00157475;stroke-miterlimit:4;stroke-dasharray:none;stroke-opacity:1"
     d="m 0.52974736,0.77010843 -1e-6,33.85799957 14.05433164,-16.929 z"
     id="left"
     inkscape:connector-curvature="0"
     sodipodi:nodetypes="cccc" />
  <path
     style="opacity:0.54000005;fill:#ff0000;fill-opacity:1;stroke:none;stroke-width:1.00157475;stroke-miterlimit:4;stroke-dasharray:none;stroke-opacity:1"
     d="m 23.821243,6.4165711 1.281631,2.2435122 0.950175,3.9059887 1.96664,0.414649 0.618719,4.718387 1e-6,4.23225 v 4.23225 4.23225 4.23225 l -14.054331,-16.929 C 17.129022,14.473006 23.821243,6.4165711 23.821243,6.4165711 Z"
     id="right"
     inkscape:connector-curvature="0"
     sodipodi:nodetypes="ccccccccccc" />
  <path
     style="opacity:0.54000005;fill:#ff0000;fill-opacity:1;stroke:none;stroke-width:1.00157475;stroke-miterlimit:4;stroke-dasharray:none;stroke-opacity:1"
     d="m 28.551547,34.699108 -28.02179984,-0.071 14.05433084,-16.929 z"
     id="down"
     inkscape:connector-curvature="0"
     sodipodi:nodetypes="cccc" />
  <path
     style="opacity:0.56000001;fill:#ff0000;fill-opacity:1;stroke:none;stroke-width:1.13385832;stroke-miterlimit:4;stroke-dasharray:none;stroke-opacity:1"
     d="m 25.367455,6.6063704 h 7.071068 v 6.0104076 l -6.14299,-0.04419 z"
     id="restart"
     inkscape:connector-curvature="0"
     sodipodi:nodetypes="ccccc" />
  <path
     style="opacity:0.56000001;fill:#ff0000;fill-opacity:1;stroke:none;stroke-width:1.13385832;stroke-miterlimit:4;stroke-dasharray:none;stroke-opacity:1"
     d="m 40.735979,6.5842734 h -8.032291 v 6.0104076 l 7.104213,-0.04419 z"
     id="next"
     inkscape:connector-curvature="0"
     sodipodi:nodetypes="ccccc" />
</svg>
